<?xml version="1.0" encoding="UTF-8"?><svg id="_레이어_1" xmlns="http://www.w3.org/2000/svg" xmlns:xlink="http://www.w3.org/1999/xlink" viewBox="0 0 206 50"><defs><clipPath id="clippath"><path d="M.91,1.93v48.81h202.89V1.93H.91ZM89.19,33.25c-.79-1.5-1.29-3.19-1.45-4.98,2.09-1.14,3.82-2.02,5.47-2.79h.03c-.11.51-.16,1.04-.16,1.58,0,1.32.33,2.56.91,3.65-1.65.82-3.26,1.69-4.79,2.55ZM118.49,25.4v4.35h-.02c-1.78-1.06-3.57-1.85-5.33-2.38v-5.14c1.86.43,3.69,1.08,5.47,1.93-.08.4-.12.81-.12,1.23ZM174.57,34.1l-.62.31c-1.77.85-3.39,1.59-4.93,2.26-1.23-1.18-2.23-2.6-2.93-4.2,1.68-.67,3.32-1.39,4.91-2.17.74,1.63,2.01,2.97,3.59,3.78v.02Z" style="fill:none; stroke-width:0px;"/></clipPath></defs><path d="M199.03,4.69c-5.2,10.05-13.15,18.48-22.98,24.11-5.69,3.26-11.96,5.84-18.3,7.52-3.5.93-7.51,1.8-11.11.91s-4.93-4.01-4.97-7.48c-.06-4.43,1.92-9.23,6.01-11.34,4.57-2.36,11.16-1.13,13.49,3.76,2.04,4.27.62,10.02-2.31,13.55-3.19,3.84-8.26,4.52-12.97,4.27-5-.28-9.54-1.86-13.64-4.72-3.6-2.51-6.72-5.64-10.37-8.09s-7.54-4.01-11.79-4.46c-3.6-.38-7.25.22-10.67,1.35-8.06,2.66-15.23,7.59-22.71,11.49-9.41,4.91-19.42,8.57-30.02,9.73s-21.58-.02-31.96-2.93c-3.39-.95-6.73-2.08-10.02-3.35-1.8-.69-2.58,2.21-.8,2.89,11.96,4.6,24.76,7.32,37.62,6.78,11.12-.47,21.86-3.43,31.91-8.15,4.49-2.11,8.82-4.55,13.16-6.97,3.76-2.11,7.55-4.27,11.57-5.85,3.51-1.38,7.2-2.3,11-2.06,4.31.26,8.32,2.09,11.81,4.54,3.87,2.72,7.21,6.15,11.24,8.65,4.42,2.74,9.39,4.02,14.56,4.19s10.91-1.11,14.39-5.42c3.29-4.06,4.9-10.03,3.32-15.11-1.77-5.66-7.49-8.76-13.25-8.16s-9.8,4.27-11.63,9.5c-1.42,4.06-1.54,9.41,1.11,13.02,2.32,3.16,6.4,3.86,10.09,3.67,7.87-.41,15.66-3.64,22.69-7.01,9.77-4.69,18.16-11.91,24.27-20.86,1.41-2.07,2.69-4.22,3.84-6.45.89-1.71-1.7-3.23-2.59-1.51h0Z" style="fill:#48c2ed; stroke-width:0px;"/><path d="M21.44,40.29c-6.91,0-12.54-5.96-12.54-13.29s5.62-13.24,12.54-13.24c2.94,0,5.68,1.08,7.74,2.96V4.18c0-.55.45-1,1-1h3.4c.55,0,1,.45,1,1v34.61c0,.55-.45,1-1,1h-3.4c-.55,0-1-.45-1-1v-1.39c-1.98,1.81-4.77,2.89-7.74,2.89ZM21.74,19.11c-4.17,0-7.44,3.49-7.44,7.94s3.27,7.89,7.44,7.89,7.44-3.47,7.44-7.89-3.27-7.94-7.44-7.94Z" style="fill:#0045f8; stroke-width:0px;"/><path d="M48.27,40.29c-7.03,0-12.54-5.86-12.54-13.34s5.53-13.19,12.59-13.19c2.95,0,5.71,1.03,7.59,2.73v-.93c0-.55.45-1,1-1h3.45c.55,0,1,.45,1,1v23.22c0,.55-.45,1-1,1h-3.45c-.55,0-1-.45-1-1v-1.32c-1.93,1.75-4.7,2.82-7.64,2.82ZM48.51,19.11c-4.17,0-7.44,3.49-7.44,7.94s3.27,7.89,7.44,7.89,7.39-3.39,7.39-7.89-3.18-7.94-7.39-7.94Z" style="fill:#0045f8; stroke-width:0px;"/><path d="M82.13,39.79c-.55,0-1-.45-1-1v-13.38c0-3.41-2.9-6.29-6.34-6.29s-6.29,2.82-6.29,6.29v13.38c0,.55-.45,1-1,1h-3.35c-.55,0-1-.45-1-1V15.56c0-.55.45-1,1-1h3.35c.55,0,1,.45,1,1v.65c1.7-1.55,4.13-2.44,6.89-2.44,6.6,0,11.04,5.06,11.04,12.59v12.44c0,.55-.45,1-1,1h-3.3Z" style="fill:#0045f8; stroke-width:0px;"/><path d="M100.96,40.29c-7.45,0-13.29-5.84-13.29-13.29s5.81-13.24,13.24-13.24c3.21,0,6.26,1.11,8.83,3.22.21.18.35.43.36.71s-.08.55-.27.75l-2.4,2.55c-.18.2-.44.31-.71.31h-.01c-.26,0-.52-.11-.71-.29-.92-.92-2.92-1.9-5.14-1.9-4.22,0-7.79,3.64-7.79,7.94s3.56,7.89,7.94,7.89c2.24,0,4.35-.93,5.8-2.56.2-.22.47-.34.75-.34.23,0,.46.08.65.24l2.6,2.25c.21.18.34.45.35.72,0,.28-.1.55-.3.75-2.9,2.84-6.23,4.28-9.89,4.28Z" style="fill:#0045f8; stroke-width:0px;"/><path d="M132.13,39.79c-.55,0-1-.45-1-1v-13.38c0-3.41-2.9-6.29-6.34-6.29s-6.29,2.82-6.29,6.29v13.38c0,.55-.45,1-1,1h-3.35c-.55,0-1-.45-1-1V4.18c0-.55.45-1,1-1h3.35c.55,0,1,.45,1,1v12.06c1.73-1.57,4.2-2.48,6.99-2.48,6.54,0,10.94,5.06,10.94,12.59v12.44c0,.55-.45,1-1,1h-3.3Z" style="fill:#0045f8; stroke-width:0px;"/><path d="M178.13,40.29c-7.39,0-13.19-5.84-13.19-13.29s5.79-13.24,13.19-13.24,13.34,5.94,13.34,13.24-5.98,13.29-13.34,13.29ZM178.13,19.11c-4.32,0-7.84,3.56-7.84,7.94s3.52,7.89,7.84,7.89,7.94-3.54,7.94-7.89-3.56-7.94-7.94-7.94Z" style="fill:#0045f8; stroke-width:0px;"/><g style="clip-path:url(#clippath);"><path d="M199.03,4.69c-5.2,10.05-13.15,18.48-22.98,24.11-5.69,3.26-11.96,5.84-18.3,7.52-3.5.93-7.51,1.8-11.11.91s-4.93-4.01-4.97-7.48c-.06-4.43,1.92-9.23,6.01-11.34,4.57-2.36,11.16-1.13,13.49,3.76,2.04,4.27.62,10.02-2.31,13.55-3.19,3.84-8.26,4.52-12.97,4.27-5-.28-9.54-1.86-13.64-4.72-3.6-2.51-6.72-5.64-10.37-8.09s-7.54-4.01-11.79-4.46c-3.6-.38-7.25.22-10.67,1.35-8.06,2.66-15.23,7.59-22.71,11.49-9.41,4.91-19.42,8.57-30.02,9.73s-21.58-.02-31.96-2.93c-3.39-.95-6.73-2.08-10.02-3.35-1.8-.69-2.58,2.21-.8,2.89,11.96,4.6,24.76,7.32,37.62,6.78,11.12-.47,21.86-3.43,31.91-8.15,4.49-2.11,8.82-4.55,13.16-6.97,3.76-2.11,7.55-4.27,11.57-5.85,3.51-1.38,7.2-2.3,11-2.06,4.31.26,8.32,2.09,11.81,4.54,3.87,2.72,7.21,6.15,11.24,8.65,4.42,2.74,9.39,4.02,14.56,4.19s10.91-1.11,14.39-5.42c3.29-4.06,4.9-10.03,3.32-15.11-1.77-5.66-7.49-8.76-13.25-8.16s-9.8,4.27-11.63,9.5c-1.42,4.06-1.54,9.41,1.11,13.02,2.32,3.16,6.4,3.86,10.09,3.67,7.87-.41,15.66-3.64,22.69-7.01,9.77-4.69,18.16-11.91,24.27-20.86,1.41-2.07,2.69-4.22,3.84-6.45.89-1.71-1.7-3.23-2.59-1.51h0Z" style="fill:#48c2ed; stroke-width:0px;"/></g><circle cx="180.55" cy="24.69" r="1.17" style="fill:#0045f8; stroke-width:0px;"/><circle cx="180.55" cy="29.37" r="1.17" style="fill:#0045f8; stroke-width:0px;"/><circle cx="175.87" cy="24.69" r="1.17" style="fill:#0045f8; stroke-width:0px;"/><circle cx="175.87" cy="29.37" r="1.17" style="fill:#0045f8; stroke-width:0px;"/></svg>